:FULLY-SPECIFIED
:FORCE-ALL-JOINTS-BE-3DOF
:DEGREES
3160
root 0.95161 16.9233 -33.3627 1086.07 5.20148 -3.72988
lfemur -18.6496 -2.41886 -8.2416
ltibia 35.299 0 0
lfoot -16.4105 7.63068 0
ltoes -40.6497 0 0
rfemur -19.475 -0.227048 18.492
rtibia 39.1033 0 0
rfoot -12.1961 -21.0636 0
rtoes -16.3973 0 0
lowerback 5.81016 1.52562 -0.522856
upperback -4.0807 2.13247 1.85509
thorax -7.63513 1.13215 1.97859
lowerneck -5.3731 -5.13288 -7.88837
upperneck 9.29581 -6.78283 5.98263
head 4.12913 -3.33453 2.73959
lclavicle 3.50565e-17 -2.12118e-15 0
lhumerus -33.2959 -18.3991 94.8309
lradius 51.334 0 0
lwrist -9.05816 0 0
lhand -34.0499 389.522 0
lfingers 7.12502 0 0
lthumb -7.22772 -660.623 0
rclavicle 3.50565e-17 -2.12118e-15 0
rhumerus -35.5191 14.1024 -81.3717
rradius 50.7031 0 0
rwrist 1.46648 0 0
rhand -29.1299 -394.077 0
rfingers 7.12502 0 0
rthumb -2.47711 295.959 0
3161
root 0.955966 16.9249 -33.3593 1086.07 5.14428 -3.74495
lfemur -18.6019 -2.41448 -8.24825
ltibia 35.2718 0 0
lfoot -16.4041 7.68093 0
ltoes -40.6219 0 0
rfemur -19.4449 -0.207945 18.4912
rtibia 39.0483 0 0
rfoot -12.183 -21.0349 0
rtoes -16.3933 0 0
lowerback 5.79755 1.53352 -0.527615
upperback -4.09467 2.14294 1.8563
thorax -7.64355 1.13774 1.98142
lowerneck -5.39032 -5.12187 -7.8799
upperneck 9.35318 -6.76966 5.981
head 4.14826 -3.32756 2.73788
lclavicle -3.33337e-16 -2.01391e-15 0
lhumerus -33.2398 -18.2175 94.7632
lradius 50.9262 0 0
lwrist -9.22315 0 0
lhand -34.0535 389.546 0
lfingers 7.12502 0 0
lthumb -7.2312 -660.598 0
rclavicle -3.33337e-16 -2.01391e-15 0
rhumerus -35.51 13.9021 -81.335
rradius 50.3214 0 0
rwrist 1.51772 0 0
rhand -29.0271 -394.06 0
rfingers 7.12502 0 0
rthumb -2.3779 295.976 0
3162
root 0.960323 16.9265 -33.3559 1086.07 5.08709 -3.76002
lfemur -18.5543 -2.4101 -8.25491
ltibia 35.2447 0 0
lfoot -16.3978 7.73117 0
ltoes -40.5941 0 0
rfemur -19.4149 -0.188842 18.4904
rtibia 38.9932 0 0
rfoot -12.1699 -21.0062 0
rtoes -16.3892 0 0
lowerback 5.78494 1.54142 -0.532374
upperback -4.10865 2.1534 1.8575
thorax -7.65197 1.14334 1.98425
lowerneck -5.40754 -5.11087 -7.87144
upperneck 9.41055 -6.7565 5.97937
head 4.16739 -3.32059 2.73616
lclavicle -7.01731e-16 -1.90664e-15 0
lhumerus -33.1837 -18.036 94.6954
lradius 50.5184 0 0
lwrist -9.38813 0 0
lhand -34.0571 389.57 0
lfingers 7.12502 0 0
lthumb -7.23468 -660.574 0
rclavicle -7.01731e-16 -1.90664e-15 0
rhumerus -35.5008 13.7017 -81.2984
rradius 49.9397 0 0
rwrist 1.56896 0 0
rhand -28.9244 -394.043 0
rfingers 7.12502 0 0
rthumb -2.2787 295.993 0
3163
root 0.964679 16.9281 -33.3525 1086.07 5.0299 -3.77508
lfemur -18.5066 -2.40572 -8.26157
ltibia 35.2175 0 0
lfoot -16.3914 7.78142 0
ltoes -40.5662 0 0
rfemur -19.3848 -0.169738 18.4895
rtibia 38.9382 0 0
rfoot -12.1568 -20.9775 0
rtoes -16.3851 0 0
lowerback 5.77233 1.54932 -0.537133
upperback -4.12262 2.16387 1.8587
thorax -7.66039 1.14894 1.98707
lowerneck -5.42476 -5.09986 -7.86297
upperneck 9.46791 -6.74334 5.97773
head 4.18653 -3.31363 2.73445
lclavicle -1.07012e-15 -1.79937e-15 0
lhumerus -33.1277 -17.8545 94.6277
lradius 50.1107 0 0
lwrist -9.55312 0 0
lhand -34.0607 389.595 0
lfingers 7.12502 0 0
lthumb -7.23816 -660.55 0
rclavicle -1.07012e-15 -1.79937e-15 0
rhumerus -35.4916 13.5014 -81.2617
rradius 49.5581 0 0
rwrist 1.6202 0 0
rhand -28.8217 -394.026 0
rfingers 7.12502 0 0
rthumb -2.17949 296.009 0
3164
root 0.969035 16.9297 -33.3491 1086.07 4.97271 -3.79015
lfemur -18.4589 -2.40134 -8.26823
ltibia 35.1903 0 0
lfoot -16.385 7.83167 0
ltoes -40.5384 0 0
rfemur -19.3548 -0.150635 18.4887
rtibia 38.8831 0 0
rfoot -12.1438 -20.9488 0
rtoes -16.381 0 0
lowerback 5.75971 1.55721 -0.541891
upperback -4.13659 2.17433 1.8599
thorax -7.66881 1.15454 1.9899
lowerneck -5.44198 -5.08885 -7.85451
upperneck 9.52528 -6.73018 5.9761
head 4.20566 -3.30666 2.73273
lclavicle -1.43852e-15 -1.69209e-15 0
lhumerus -33.0716 -17.673 94.5599
lradius 49.7029 0 0
lwrist -9.7181 0 0
lhand -34.0643 389.619 0
lfingers 7.12502 0 0
lthumb -7.24165 -660.526 0
rclavicle -1.43852e-15 -1.69209e-15 0
rhumerus -35.4824 13.3011 -81.2251
rradius 49.1764 0 0
rwrist 1.67143 0 0
rhand -28.719 -394.009 0
rfingers 7.12502 0 0
rthumb -2.08029 296.026 0
3165
root 0.973391 16.9313 -33.3457 1086.07 4.91551 -3.80522
lfemur -18.4112 -2.39696 -8.27489
ltibia 35.1632 0 0
lfoot -16.3786 7.88191 0
ltoes -40.5106 0 0
rfemur -19.3247 -0.131532 18.4879
rtibia 38.8281 0 0
rfoot -12.1307 -20.9201 0
rtoes -16.377 0 0
lowerback 5.7471 1.56511 -0.54665
upperback -4.15057 2.1848 1.8611
thorax -7.67723 1.16013 1.99273
lowerneck -5.45919 -5.07785 -7.84604
upperneck 9.58264 -6.71702 5.97447
head 4.22479 -3.2997 2.73102
lclavicle -1.80691e-15 -1.58482e-15 0
lhumerus -33.0156 -17.4914 94.4922
lradius 49.2951 0 0
lwrist -9.88309 0 0
lhand -34.0679 389.643 0
lfingers 7.12502 0 0
lthumb -7.24513 -660.501 0
rclavicle -1.80691e-15 -1.58482e-15 0
rhumerus -35.4732 13.1007 -81.1884
rradius 48.7947 0 0
rwrist 1.72267 0 0
rhand -28.6163 -393.992 0
rfingers 7.12502 0 0
rthumb -1.98108 296.043 0
3166
root 0.977747 16.9329 -33.3423 1086.07 4.85832 -3.82029
lfemur -18.3635 -2.39258 -8.28154
ltibia 35.136 0 0
lfoot -16.3722 7.93216 0
ltoes -40.4827 0 0
rfemur -19.2947 -0.112429 18.487
rtibia 38.773 0 0
rfoot -12.1176 -20.8914 0
rtoes -16.3729 0 0
lowerback 5.73449 1.57301 -0.551409
upperback -4.16454 2.19526 1.8623
thorax -7.68565 1.16573 1.99555
lowerneck -5.47641 -5.06684 -7.83758
upperneck 9.64001 -6.70386 5.97283
head 4.24393 -3.29273 2.7293
lclavicle -2.17531e-15 -1.47755e-15 0
lhumerus -32.9595 -17.3099 94.4244
lradius 48.8873 0 0
lwrist -10.0481 0 0
lhand -34.0715 389.668 0
lfingers 7.12502 0 0
lthumb -7.24861 -660.477 0
rclavicle -2.17531e-15 -1.47755e-15 0
rhumerus -35.4641 12.9004 -81.1518
rradius 48.4131 0 0
rwrist 1.77391 0 0
rhand -28.5136 -393.975 0
rfingers 7.12502 0 0
rthumb -1.88188 296.059 0
3167
root 0.982103 16.9345 -33.3389 1086.07 4.80113 -3.83536
lfemur -18.3158 -2.3882 -8.2882
ltibia 35.1089 0 0
lfoot -16.3658 7.9824 0
ltoes -40.4549 0 0
rfemur -19.2646 -0.0933259 18.4862
rtibia 38.718 0 0
rfoot -12.1045 -20.8627 0
rtoes -16.3688 0 0
lowerback 5.72188 1.58091 -0.556167
upperback -4.17852 2.20573 1.86351
thorax -7.69407 1.17133 1.99838
lowerneck -5.49363 -5.05584 -7.82911
upperneck 9.69738 -6.69069 5.9712
head 4.26306 -3.28576 2.72759
lclavicle -2.5437e-15 -1.37028e-15 0
lhumerus -32.9034 -17.1284 94.3567
lradius 48.4795 0 0
lwrist -10.2131 0 0
lhand -34.0751 389.692 0
lfingers 7.12502 0 0
lthumb -7.25209 -660.453 0
rclavicle -2.5437e-15 -1.37028e-15 0
rhumerus -35.4549 12.7001 -81.1151
rradius 48.0314 0 0
rwrist 1.82514 0 0
rhand -28.4108 -393.958 0
rfingers 7.12502 0 0
rthumb -1.78267 296.076 0
3168
root 0.986459 16.9361 -33.3355 1086.07 4.74394 -3.85043
lfemur -18.2681 -2.38382 -8.29486
ltibia 35.0817 0 0
lfoot -16.3594 8.03265 0
ltoes -40.4271 0 0
rfemur -19.2345 -0.0742228 18.4854
rtibia 38.663 0 0
rfoot -12.0914 -20.834 0
rtoes -16.3647 0 0
lowerback 5.70927 1.5888 -0.560926
upperback -4.19249 2.21619 1.86471
thorax -7.70249 1.17693 2.00121
lowerneck -5.51085 -5.04483 -7.82065
upperneck 9.75474 -6.67753 5.96957
head 4.28219 -3.2788 2.72588
lclavicle -2.91209e-15 -1.26301e-15 0
lhumerus -32.8474 -16.9469 94.2889
lradius 48.0717 0 0
lwrist -10.378 0 0
lhand -34.0787 389.716 0
lfingers 7.12502 0 0
lthumb -7.25557 -660.429 0
rclavicle -2.91209e-15 -1.26301e-15 0
rhumerus -35.4457 12.4997 -81.0784
rradius 47.6497 0 0
rwrist 1.87638 0 0
rhand -28.3081 -393.941 0
rfingers 7.12502 0 0
rthumb -1.68346 296.093 0
3169
root 0.990816 16.9377 -33.3321 1086.07 4.68675 -3.8655
lfemur -18.2205 -2.37944 -8.30152
ltibia 35.0545 0 0
lfoot -16.3531 8.08289 0
ltoes -40.3992 0 0
rfemur -19.2045 -0.0551197 18.4846
rtibia 38.6079 0 0
rfoot -12.0783 -20.8053 0
rtoes -16.3607 0 0
lowerback 5.69666 1.5967 -0.565685
upperback -4.20647 2.22666 1.86591
thorax -7.71091 1.18252 2.00403
lowerneck -5.52807 -5.03383 -7.81218
upperneck 9.81211 -6.66437 5.96794
head 4.30132 -3.27183 2.72416
lclavicle -3.28049e-15 -1.15574e-15 0
lhumerus -32.7913 -16.7653 94.2212
lradius 47.6639 0 0
lwrist -10.543 0 0
lhand -34.0824 389.741 0
lfingers 7.12502 0 0
lthumb -7.25905 -660.404 0
rclavicle -3.28049e-15 -1.15574e-15 0
rhumerus -35.4365 12.2994 -81.0418
rradius 47.2681 0 0
rwrist 1.92762 0 0
rhand -28.2054 -393.925 0
rfingers 7.12502 0 0
rthumb -1.58426 296.109 0
